<svg width="24" height="24" viewBox="0 0 24 24" fill="none" xmlns="http://www.w3.org/2000/svg">
<path d="M19.0714 16.8215H8.14286L4.92857 3.32147H3M5.57143 5.8929H21L19.0714 14.25H7.5L5.57143 5.8929Z" stroke="white" stroke-width="1.2" stroke-linecap="round" stroke-linejoin="round"/>
<path d="M17.7857 20.6787C18.4958 20.6787 19.0714 20.103 19.0714 19.393C19.0714 18.6829 18.4958 18.1072 17.7857 18.1072C17.0756 18.1072 16.5 18.6829 16.5 19.393C16.5 20.103 17.0756 20.6787 17.7857 20.6787Z" stroke="white" stroke-width="1.2" stroke-linecap="round" stroke-linejoin="round"/>
<path d="M9.42854 20.6787C10.1386 20.6787 10.7143 20.103 10.7143 19.393C10.7143 18.6829 10.1386 18.1072 9.42854 18.1072C8.71846 18.1072 8.14282 18.6829 8.14282 19.393C8.14282 20.103 8.71846 20.6787 9.42854 20.6787Z" stroke="white" stroke-width="1.2" stroke-linecap="round" stroke-linejoin="round"/>
</svg>
