<?xml version="1.0" encoding="utf-8"?>
<!-- Generator: Adobe Illustrator 16.0.0, SVG Export Plug-In . SVG Version: 6.00 Build 0)  -->
<!DOCTYPE svg PUBLIC "-//W3C//DTD SVG 1.1//EN" "http://www.w3.org/Graphics/SVG/1.1/DTD/svg11.dtd">
<svg version="1.1" id="Layer_1" xmlns="http://www.w3.org/2000/svg" xmlns:xlink="http://www.w3.org/1999/xlink" x="0px" y="0px"
	 width="654.813px" height="654.813px" viewBox="0 0 654.813 654.813" enable-background="new 0 0 654.813 654.813"
	 xml:space="preserve">
<g>
	<path fill="#636363" d="M645.894,604.271L463.051,420.686c34.934-44.596,56.487-100.341,56.487-161.288C519.539,115.948,402.847,0,260.141,0
		S0,116.692,0,259.398c0,142.707,116.692,259.398,259.397,259.398c60.948,0,116.692-20.812,161.288-56.488l183.585,183.585
		c5.946,5.946,13.379,8.919,20.812,8.919s14.864-2.973,20.812-8.919C657.786,634.745,657.786,615.42,645.894,604.271z
		 M59.461,259.398c0-110.746,89.934-199.937,199.937-199.937c110.003,0,199.938,89.935,199.938,199.937
		s-89.192,200.68-199.938,200.68C148.652,460.078,59.461,370.144,59.461,259.398z"/>
	<path fill="#636363" d="M259.397,100.34c-87.704,0-159.057,71.353-159.057,159.058c0,16.352,13.378,29.73,29.73,29.73
		c16.352,0,29.73-13.379,29.73-29.73c0-55.001,44.596-99.597,99.597-99.597c16.353,0,29.731-13.379,29.731-29.73
		S275.75,100.34,259.397,100.34z"/>
</g>
</svg>
