<svg width="24" height="24" viewBox="0 0 24 24" fill="none" xmlns="http://www.w3.org/2000/svg">
<path d="M11.3984 6.01934L12 6.83578L12.6016 6.01934V6.01933L12.6018 6.01905L12.6082 6.01084C12.6155 6.0015 12.6287 5.98505 12.6477 5.96247C12.6858 5.91728 12.7469 5.84789 12.8311 5.76224C12.9997 5.59055 13.2582 5.3562 13.6053 5.12062C14.2968 4.65139 15.337 4.17859 16.7368 4.17859C18.1413 4.17859 19.2553 4.65147 20.0176 5.42742C20.7811 6.20455 21.25 7.34508 21.25 8.78573C21.25 10.0501 20.7105 11.3757 19.817 12.6921C18.9275 14.0024 17.7272 15.2446 16.5033 16.3265C15.2826 17.4055 14.0584 18.3075 13.1376 18.9406C12.6779 19.2566 12.2955 19.5044 12.0293 19.6726C12.0194 19.6788 12.0096 19.685 12 19.691C11.9904 19.685 11.9806 19.6788 11.9707 19.6726C11.7045 19.5044 11.3221 19.2566 10.8624 18.9406C9.94162 18.3075 8.71744 17.4055 7.49671 16.3265C6.27283 15.2446 5.0725 14.0024 4.18304 12.6921C3.28951 11.3757 2.75 10.0501 2.75 8.78573C2.75 7.34508 3.21887 6.20455 3.98237 5.42742C4.74471 4.65147 5.85868 4.17859 7.26316 4.17859C8.66304 4.17859 9.70316 4.65139 10.3947 5.12062C10.7418 5.3562 11.0003 5.59055 11.1689 5.76224C11.2531 5.84789 11.3142 5.91728 11.3523 5.96247C11.3713 5.98505 11.3845 6.0015 11.3918 6.01084L11.3982 6.01905L11.3984 6.01933V6.01934Z" stroke="white" stroke-width="1.2"/>
</svg>
