<svg width="24" height="24" viewBox="0 0 24 24" fill="none" xmlns="http://www.w3.org/2000/svg">
<path d="M15.3 7.875V6.5H8.69995V7.875H10.8C11.5812 7.875 12.2406 8.45113 12.489 9.25H8.69995V10.625H12.489C12.3658 11.026 12.1373 11.3734 11.8349 11.6196C11.5325 11.8658 11.1709 11.9987 10.8 12H8.69995V13.6596L12.0516 17.5H13.7484L10.1484 13.375H10.8C11.4911 13.3739 12.1608 13.0998 12.6962 12.5989C13.2315 12.0979 13.5997 11.4008 13.7388 10.625H15.3V9.25H13.7388C13.6468 8.74964 13.4573 8.27958 13.1844 7.875H15.3Z" fill="white"/>
<circle cx="12" cy="12" r="10.4" stroke="white" stroke-width="1.2"/>
</svg>
