<svg width="24" height="24" viewBox="0 0 24 24" fill="none" xmlns="http://www.w3.org/2000/svg">
<path d="M13.5119 15.0421C14.9715 15.4258 16 16.3486 16 17.4259C16 18.8475 14.2091 20 12 20C9.79086 20 8 18.8475 8 17.4259C8 16.3069 9.1095 15.3547 10.6592 15" stroke="white"/>
<path d="M14.3601 13.1221C16.698 13.8012 18.3492 15.4592 18.3492 17.3968C18.3492 19.9391 15.5066 22 12 22C8.49345 22 5.65082 19.9391 5.65082 17.3968C5.65082 15.4096 7.38764 13.7166 9.82076 13.072" stroke="white"/>
<path d="M16.1653 9.43135C15.3079 11.4656 14.1602 13.6547 13.2221 15.3423C12.7728 16.1504 12.3733 16.8405 12.0794 17.3396C11.7856 16.8405 11.3861 16.1504 10.9368 15.3423C9.99868 13.6547 8.85099 11.4656 7.99357 9.43135C6.42432 5.70836 9.02033 2.6 12.0794 2.6C15.1386 2.6 17.7346 5.70836 16.1653 9.43135Z" stroke="white" stroke-width="1.2" stroke-linecap="round" stroke-linejoin="round"/>
<circle cx="12.08" cy="7" r="2" fill="white"/>
</svg>
