<svg width="32" height="32" viewBox="0 0 32 32" fill="none" xmlns="http://www.w3.org/2000/svg">
<g clip-path="url(#clip0_2877_60361)">
<path d="M4.26667 12.3339C4.24622 12.2077 4.18113 12.0931 4.08323 12.0108C3.98534 11.9286 3.86117 11.8843 3.73333 11.8859H0V12.9526H3.28L5.86667 28.5046C5.88711 28.6308 5.95221 28.7454 6.0501 28.8277C6.14799 28.9099 6.27217 28.9542 6.4 28.9526H8.94933C8.74086 29.1819 8.60349 29.4669 8.55392 29.7729C8.50436 30.0789 8.54473 30.3926 8.67014 30.6761C8.79555 30.9596 9.00059 31.2005 9.26034 31.3696C9.52009 31.5387 9.82338 31.6287 10.1333 31.6287C10.4433 31.6287 10.7466 31.5387 11.0063 31.3696C11.2661 31.2005 11.4711 30.9596 11.5965 30.6761C11.7219 30.3926 11.7623 30.0789 11.7127 29.7729C11.6632 29.4669 11.5258 29.1819 11.3173 28.9526H17.6V27.8859H6.85333L4.26667 12.3339Z" fill="#BA4350"/>
<path d="M25.3266 15.6192L25.5026 14.5525H6.49463L6.67063 15.6192H25.3266Z" fill="#BA4350"/>
<path d="M10.6675 9.43967L9.82275 10.2844L10.6675 11.1292L11.5123 10.2844L10.6675 9.43967Z" fill="#BA4350"/>
<path d="M28.2656 27.3526H29.3323V25.7526H28.799H28.2656V27.3526Z" fill="#BA4350"/>
<path d="M14.7148 13.4859L16.3148 11.8859L12.2668 7.83789L11.4188 8.68589L12.6454 9.90722C12.6954 9.9568 12.7351 10.0158 12.7622 10.0808C12.7892 10.1458 12.8032 10.2155 12.8032 10.2859C12.8032 10.3563 12.7892 10.426 12.7622 10.491C12.7351 10.556 12.6954 10.615 12.6454 10.6646L11.0454 12.2646C10.9958 12.3145 10.9368 12.3542 10.8719 12.3813C10.8069 12.4084 10.7372 12.4223 10.6668 12.4223C10.5963 12.4223 10.5266 12.4084 10.4616 12.3813C10.3967 12.3542 10.3377 12.3145 10.2881 12.2646L9.06675 11.0379L8.21875 11.8859L9.81875 13.4859H14.7148Z" fill="#BA4350"/>
<path d="M25.5979 19.3525H24.5312V20.9525H25.5979V19.3525Z" fill="#BA4350"/>
<path d="M28.2647 19.3525H26.6647V21.4859C26.6647 21.6273 26.6086 21.763 26.5085 21.863C26.4085 21.963 26.2729 22.0192 26.1314 22.0192H23.9981C23.8566 22.0192 23.721 21.963 23.621 21.863C23.5209 21.763 23.4647 21.6273 23.4647 21.4859V19.3525H21.8647V24.6859H28.2647V19.3525Z" fill="#BA4350"/>
<path d="M30.404 25.7526V27.8859C30.404 28.0273 30.3478 28.163 30.2478 28.263C30.1478 28.363 30.0121 28.4192 29.8707 28.4192H27.7373C27.5959 28.4192 27.4602 28.363 27.3602 28.263C27.2602 28.163 27.204 28.0273 27.204 27.8859V25.7526H25.604V31.0859H32.004V25.7526H30.404Z" fill="#BA4350"/>
<path d="M22.9353 27.8859C22.9353 28.0273 22.8791 28.163 22.779 28.263C22.679 28.363 22.5434 28.4192 22.4019 28.4192H20.2686C20.1271 28.4192 19.9915 28.363 19.8915 28.263C19.7914 28.163 19.7353 28.0273 19.7353 27.8859V25.7526H18.1353V31.0859H24.5353V25.7526H22.9353V27.8859Z" fill="#BA4350"/>
<path opacity="0.5" d="M20.8007 18.8192C20.8007 18.6778 20.8569 18.5421 20.9569 18.4421C21.0569 18.3421 21.1926 18.2859 21.334 18.2859H24.8807L25.1473 16.6859H6.854L8.454 26.2859H17.0673V25.2192C17.0673 25.0778 17.1235 24.9421 17.2235 24.8421C17.3236 24.7421 17.4592 24.6859 17.6007 24.6859H20.8007V18.8192Z" fill="#BA4350"/>
<path d="M20.8022 25.7526V27.3526H21.8689V25.7526H21.3356H20.8022Z" fill="#BA4350"/>
<path d="M26.9813 4.41922L26.1333 3.57122L24.9119 4.79788C24.8623 4.84787 24.8034 4.88755 24.7384 4.91462C24.6734 4.9417 24.6037 4.95564 24.5333 4.95564C24.4629 4.95564 24.3931 4.9417 24.3282 4.91462C24.2632 4.88755 24.2042 4.84787 24.1546 4.79788L22.5546 3.19788C22.5046 3.1483 22.4649 3.08931 22.4378 3.02432C22.4108 2.95933 22.3968 2.88962 22.3968 2.81922C22.3968 2.74881 22.4108 2.6791 22.4378 2.61411C22.4649 2.54912 22.5046 2.49013 22.5546 2.44055L23.7813 1.21922L22.9333 0.371216L18.8853 4.41922L22.9333 8.46722L26.9813 4.41922Z" fill="#BA4350"/>
<path d="M24.5323 1.97604L23.6875 2.8208L24.5323 3.66556L25.377 2.8208L24.5323 1.97604Z" fill="#BA4350"/>
</g>
<defs>
<clipPath id="clip0_2877_60361">
<rect width="32" height="32" fill="white"/>
</clipPath>
</defs>
</svg>
