<svg width="32" height="32" viewBox="0 0 32 32" fill="none" xmlns="http://www.w3.org/2000/svg">
<path d="M31.4659 28.8001H29.3327V25.3965C29.6746 25.0116 29.8643 24.5151 29.866 24.0003V20.8004C29.866 20.3761 29.6974 19.9692 29.3974 19.6691C29.0973 19.3691 28.6904 19.2005 28.2661 19.2005H27.1994V15.7276C27.3645 15.6043 27.4986 15.4444 27.5912 15.2604C27.6837 15.0764 27.7322 14.8733 27.7327 14.6673V10.6675C27.7327 10.2432 27.5642 9.83621 27.2641 9.53616C26.9641 9.23612 26.5571 9.06755 26.1328 9.06755H17.5998V3.73443C17.5998 3.59298 17.5436 3.45733 17.4436 3.35732C17.3436 3.2573 17.2079 3.20111 17.0665 3.20111H16.9924C17.2001 2.8758 17.3085 2.49702 17.3044 2.11107C17.3004 1.72513 17.184 1.34872 16.9694 1.02786L16.4436 0.238561C16.3924 0.160179 16.3212 0.0968668 16.2374 0.0551506C16.1536 0.0134343 16.0602 -0.00517641 15.9668 0.00123675C15.8735 0.00698418 15.7833 0.0371576 15.7054 0.0887325C15.6274 0.140307 15.5644 0.211472 15.5226 0.295092L14.7066 1.92703C14.6044 2.13207 14.5579 2.36036 14.5718 2.58903C14.5856 2.81769 14.6593 3.0387 14.7855 3.22991C14.6751 3.26057 14.5777 3.32642 14.5081 3.41748C14.4385 3.50854 14.4005 3.61982 14.3999 3.73443V9.06755H5.86693C5.4426 9.06755 5.03565 9.23612 4.7356 9.53616C4.43555 9.83621 4.26699 10.2432 4.26699 10.6675V12.8007C4.26769 13.0245 4.31555 13.2456 4.40744 13.4496C4.49933 13.6536 4.6332 13.8359 4.8003 13.9847V19.2005H3.73368C3.30935 19.2005 2.9024 19.3691 2.60235 19.6691C2.3023 19.9692 2.13374 20.3761 2.13374 20.8004V24.5336C2.13548 25.0485 2.32512 25.5449 2.66705 25.9298V28.8001H0.533801C0.392358 28.8001 0.256707 28.8563 0.156692 28.9563C0.0566764 29.0563 0.000488281 29.192 0.000488281 29.3334V31.4667C0.000488281 31.6081 0.0566764 31.7438 0.156692 31.8438C0.256707 31.9438 0.392358 32 0.533801 32H31.4659C31.6074 32 31.743 31.9438 31.843 31.8438C31.9431 31.7438 31.9992 31.6081 31.9992 31.4667V29.3334C31.9992 29.192 31.9431 29.0563 31.843 28.9563C31.743 28.8563 31.6074 28.8001 31.4659 28.8001ZM15.9668 0.93712C17.0665 1.6525 16.4436 2.88295 15.9028 2.75633C15.2652 2.81482 15.4666 1.6 15.9668 0.93712ZM15.4666 4.26774H16.5332V9.06755H15.4666V4.26774ZM5.33361 10.6675C5.33361 10.526 5.3898 10.3904 5.48982 10.2904C5.58983 10.1904 5.72548 10.1342 5.86693 10.1342H26.1328C26.2743 10.1342 26.4099 10.1904 26.5099 10.2904C26.6099 10.3904 26.6661 10.526 26.6661 10.6675V14.6673C26.6661 14.7381 26.638 14.8059 26.588 14.8559C26.538 14.9059 26.4702 14.934 26.3995 14.934C26.3287 14.934 26.2609 14.9059 26.2109 14.8559C26.1609 14.8059 26.1328 14.7381 26.1328 14.6673V12.5341C26.1328 12.039 25.9362 11.5643 25.5861 11.2142C25.236 10.8642 24.7613 10.6675 24.2662 10.6675C23.7712 10.6675 23.2964 10.8642 22.9463 11.2142C22.5963 11.5643 22.3996 12.039 22.3996 12.5341V13.8674C22.3996 14.0088 22.3434 14.1445 22.2434 14.2445C22.1434 14.3445 22.0078 14.4007 21.8663 14.4007C21.7249 14.4007 21.5892 14.3445 21.4892 14.2445C21.3892 14.1445 21.333 14.0088 21.333 13.8674V13.0674C21.333 12.4309 21.0801 11.8205 20.6301 11.3704C20.18 10.9203 19.5696 10.6675 18.9331 10.6675C18.2966 10.6675 17.6862 10.9203 17.2361 11.3704C16.786 11.8205 16.5332 12.4309 16.5332 13.0674V14.934C16.5332 15.2169 16.4208 15.4882 16.2208 15.6882C16.0207 15.8882 15.7494 16.0006 15.4666 16.0006C15.1837 16.0006 14.9124 15.8882 14.7123 15.6882C14.5123 15.4882 14.3999 15.2169 14.3999 14.934V13.6007C14.3999 13.1057 14.2033 12.6309 13.8532 12.2808C13.5032 11.9308 13.0284 11.7341 12.5333 11.7341C12.0383 11.7341 11.5635 11.9308 11.2135 12.2808C10.8634 12.6309 10.6667 13.1057 10.6667 13.6007V14.134C10.6667 14.3462 10.5825 14.5497 10.4324 14.6997C10.2824 14.8497 10.0789 14.934 9.86677 14.934C9.65461 14.934 9.45113 14.8497 9.30111 14.6997C9.15109 14.5497 9.0668 14.3462 9.0668 14.134V12.0008C9.0668 11.6472 8.92633 11.308 8.67629 11.058C8.42626 10.808 8.08713 10.6675 7.73352 10.6675C7.37991 10.6675 7.04079 10.808 6.79075 11.058C6.54071 11.308 6.40024 11.6472 6.40024 12.0008V12.8007C6.40024 12.9422 6.34405 13.0778 6.24404 13.1779C6.14402 13.2779 6.00837 13.3341 5.86693 13.3341C5.72548 13.3341 5.58983 13.2779 5.48982 13.1779C5.3898 13.0778 5.33361 12.9422 5.33361 12.8007V10.6675ZM9.86677 16.0006C10.3618 16.0006 10.8366 15.804 11.1867 15.4539C11.5367 15.1039 11.7334 14.6291 11.7334 14.134V13.6007C11.7334 13.3885 11.8176 13.1851 11.9677 13.035C12.1177 12.885 12.3212 12.8007 12.5333 12.8007C12.7455 12.8007 12.949 12.885 13.099 13.035C13.249 13.1851 13.3333 13.3885 13.3333 13.6007V14.934C13.3333 15.4998 13.5581 16.0424 13.9581 16.4424C14.3582 16.8425 14.9008 17.0672 15.4666 17.0672C16.0323 17.0672 16.5749 16.8425 16.975 16.4424C17.3751 16.0424 17.5998 15.4998 17.5998 14.934V13.0674C17.5998 12.7138 17.7403 12.3747 17.9903 12.1246C18.2404 11.8746 18.5795 11.7341 18.9331 11.7341C19.2867 11.7341 19.6258 11.8746 19.8759 12.1246C20.1259 12.3747 20.2664 12.7138 20.2664 13.0674V13.8674C20.2664 14.2917 20.4349 14.6986 20.735 14.9987C21.035 15.2987 21.442 15.4673 21.8663 15.4673C22.2906 15.4673 22.6976 15.2987 22.9976 14.9987C23.2977 14.6986 23.4662 14.2917 23.4662 13.8674V12.5341C23.4662 12.3219 23.5505 12.1184 23.7005 11.9684C23.8506 11.8184 24.0541 11.7341 24.2662 11.7341C24.4784 11.7341 24.6819 11.8184 24.8319 11.9684C24.9819 12.1184 25.0662 12.3219 25.0662 12.5341V14.6673C25.0662 14.9746 25.1724 15.2724 25.3668 15.5104C25.5612 15.7484 25.8317 15.912 26.1328 15.9734V19.2005H5.86693V14.4007C6.29126 14.4007 6.69821 14.2321 6.99825 13.9321C7.2983 13.632 7.46687 13.2251 7.46687 12.8007V12.0008C7.46687 11.9301 7.49496 11.8622 7.54497 11.8122C7.59497 11.7622 7.6628 11.7341 7.73352 11.7341C7.80424 11.7341 7.87207 11.7622 7.92208 11.8122C7.97208 11.8622 8.00018 11.9301 8.00018 12.0008V14.134C8.00018 14.6291 8.19684 15.1039 8.54689 15.4539C8.89695 15.804 9.37172 16.0006 9.86677 16.0006ZM3.20036 20.8004C3.20036 20.659 3.25655 20.5233 3.35657 20.4233C3.45658 20.3233 3.59223 20.2671 3.73368 20.2671H28.2661C28.4075 20.2671 28.5432 20.3233 28.6432 20.4233C28.7432 20.5233 28.7994 20.659 28.7994 20.8004V24.0003C28.7994 24.2832 28.687 24.5545 28.487 24.7545C28.2869 24.9546 28.0156 25.0669 27.7327 25.0669C27.4499 25.0669 27.1786 24.9546 26.9785 24.7545C26.7785 24.5545 26.6661 24.2832 26.6661 24.0003V23.467C26.6661 22.9012 26.4414 22.3586 26.0413 21.9586C25.6412 21.5585 25.0986 21.3337 24.5329 21.3337C23.9671 21.3337 23.4245 21.5585 23.0244 21.9586C22.6244 22.3586 22.3996 22.9012 22.3996 23.467V24.267C22.3996 24.9035 22.1468 25.5139 21.6967 25.964C21.2466 26.414 20.6362 26.6669 19.9997 26.6669C19.3632 26.6669 18.7528 26.414 18.3027 25.964C17.8527 25.5139 17.5998 24.9035 17.5998 24.267V24.0003C17.5998 23.2931 17.3189 22.6148 16.8188 22.1148C16.3187 21.6147 15.6405 21.3337 14.9332 21.3337C14.226 21.3337 13.5478 21.6147 13.0477 22.1148C12.5476 22.6148 12.2667 23.2931 12.2667 24.0003V24.5336C12.2667 24.958 12.0981 25.3649 11.7981 25.6649C11.498 25.965 11.0911 26.1336 10.6667 26.1336C10.2424 26.1336 9.83546 25.965 9.53541 25.6649C9.23537 25.3649 9.0668 24.958 9.0668 24.5336V23.2003C9.0668 22.7053 8.87015 22.2305 8.52009 21.8805C8.17004 21.5304 7.69526 21.3337 7.20021 21.3337C6.70516 21.3337 6.23038 21.5304 5.88033 21.8805C5.53027 22.2305 5.33361 22.7053 5.33361 23.2003V24.5336C5.33361 24.8165 5.22124 25.0878 5.02121 25.2878C4.82118 25.4879 4.54988 25.6002 4.26699 25.6002C3.9841 25.6002 3.7128 25.4879 3.51277 25.2878C3.31274 25.0878 3.20036 24.8165 3.20036 24.5336V20.8004ZM10.6667 27.2002C11.3737 27.1993 12.0515 26.9181 12.5514 26.4182C13.0512 25.9183 13.3325 25.2406 13.3333 24.5336V24.0003C13.3333 23.576 13.5019 23.169 13.8019 22.869C14.102 22.5689 14.5089 22.4004 14.9332 22.4004C15.3576 22.4004 15.7645 22.5689 16.0646 22.869C16.3646 23.169 16.5332 23.576 16.5332 24.0003V24.267C16.5332 25.1863 16.8984 26.0681 17.5485 26.7182C18.1986 27.3683 19.0803 27.7335 19.9997 27.7335C20.9191 27.7335 21.8008 27.3683 22.4509 26.7182C23.101 26.0681 23.4662 25.1863 23.4662 24.267V23.467C23.4662 23.1841 23.5786 22.9128 23.7787 22.7128C23.9787 22.5127 24.25 22.4004 24.5329 22.4004C24.8158 22.4004 25.0871 22.5127 25.2871 22.7128C25.4871 22.9128 25.5995 23.1841 25.5995 23.467V24.0003C25.5995 24.5661 25.8242 25.1087 26.2243 25.5087C26.6244 25.9088 27.167 26.1336 27.7327 26.1336C27.913 26.1313 28.0923 26.1059 28.2661 26.0578V28.8001H3.73368V26.5911C3.90746 26.6392 4.08671 26.6646 4.26699 26.6669C4.83276 26.6669 5.37536 26.4421 5.77543 26.0421C6.17549 25.642 6.40024 25.0994 6.40024 24.5336V23.2003C6.40024 22.9882 6.48452 22.7847 6.63455 22.6347C6.78457 22.4847 6.98804 22.4004 7.20021 22.4004C7.41237 22.4004 7.61585 22.4847 7.76587 22.6347C7.9159 22.7847 8.00018 22.9882 8.00018 23.2003V24.5336C8.00103 25.2406 8.28224 25.9183 8.78213 26.4182C9.28203 26.9181 9.95978 27.1993 10.6667 27.2002ZM30.9326 30.9334H1.06711V29.8667H30.9326V30.9334Z" fill="#BA4350"/>
<g opacity="0.5">
<path d="M3.0221 25.0666L2.48877 20.2666L3.55544 19.7333H28.6221L29.6888 20.8L29.1554 24.5333L28.0888 25.6L26.4888 25.0666L25.9554 22.9333L25.4221 21.8666H24.3554L22.7554 22.9333V25.6L20.6221 27.2L18.4888 26.6666L17.4221 25.0666L16.3554 22.4L14.7554 21.8666L13.1554 22.9333L12.6221 25.6L11.0221 26.6666L9.4221 26.1333L8.88877 25.0666L8.35544 22.4L7.28877 21.8666L5.68877 22.4V25.0666L4.08877 26.1333L3.0221 25.0666Z" fill="#BA4350"/>
<path d="M4.6221 12.8V10.1333L5.15544 9.59998H26.4888L27.0221 10.6666V15.4666L25.9554 14.9333L25.4221 11.7333L24.3554 11.2L22.7554 12.2666V14.4L21.6888 14.9333L21.1554 13.8666L20.6221 12.2666L19.5554 11.2L17.4221 12.2666L16.8888 16L15.8221 16.5333L14.2221 16C14.0443 15.1111 13.6888 13.2266 13.6888 12.8C13.6888 12.3733 12.9777 12.2666 12.6221 12.2666L11.5554 13.3333L10.4888 15.4666L8.35544 14.9333V11.7333L7.28877 11.2L6.75544 13.3333L5.68877 13.8666L4.6221 12.8Z" fill="#BA4350"/>
</g>
<path d="M18.6666 2.13447C18.7239 2.13434 18.7808 2.12497 18.8351 2.10674L20.4351 1.57342C20.5016 1.55129 20.5631 1.51627 20.6161 1.47037C20.6691 1.42446 20.7126 1.36856 20.744 1.30586C20.7754 1.24317 20.7941 1.1749 20.7991 1.10496C20.8041 1.03503 20.7953 0.964784 20.7732 0.898251C20.7511 0.831717 20.716 0.770194 20.6701 0.717194C20.6242 0.664194 20.5683 0.620755 20.5056 0.589357C20.4429 0.55796 20.3747 0.539219 20.3047 0.534204C20.2348 0.529189 20.1646 0.537999 20.098 0.56013L18.4981 1.09344C18.3766 1.13248 18.2732 1.21377 18.2065 1.32257C18.1398 1.43137 18.1144 1.56046 18.1348 1.68641C18.1552 1.81236 18.22 1.92683 18.3176 2.00904C18.4152 2.09125 18.539 2.13575 18.6666 2.13447Z" fill="#BA4350"/>
<path d="M18.4977 3.70673L20.0977 4.24004C20.1642 4.26217 20.2345 4.27098 20.3044 4.26596C20.3743 4.26095 20.4426 4.24221 20.5053 4.21081C20.568 4.17941 20.6239 4.13597 20.6698 4.08297C20.7157 4.02997 20.7507 3.96845 20.7729 3.90192C20.795 3.83538 20.8038 3.76514 20.7988 3.6952C20.7938 3.62527 20.775 3.557 20.7436 3.4943C20.7122 3.43161 20.6688 3.37571 20.6158 3.3298C20.5628 3.28389 20.5013 3.24888 20.4347 3.22674L18.8348 2.69343C18.7683 2.6713 18.698 2.66249 18.6281 2.66751C18.5581 2.67252 18.4899 2.69126 18.4272 2.72266C18.3006 2.78607 18.2043 2.89718 18.1596 3.03155C18.1149 3.16592 18.1254 3.31255 18.1888 3.43917C18.2523 3.56578 18.3634 3.66203 18.4977 3.70673V3.70673Z" fill="#BA4350"/>
<rect x="0.888672" y="29.8667" width="30.9333" height="1.06667" fill="#BA4350"/>
</svg>
