<svg width="32" height="32" viewBox="0 0 32 32" fill="none" xmlns="http://www.w3.org/2000/svg">
<path fill-rule="evenodd" clip-rule="evenodd" d="M19.285 21.2984C20.9552 21.2984 22.3116 19.942 22.3116 18.2718C22.3116 16.6015 20.9552 15.2451 19.285 15.2451C17.6147 15.2451 16.2583 16.6015 16.2583 18.2718C16.2583 19.942 17.6185 21.2984 19.285 21.2984ZM19.8545 16.0004C20.3777 16.0004 20.8002 16.4229 20.8002 16.9461C20.8002 17.4693 20.3777 17.8918 19.8545 17.8918C19.3313 17.8918 18.9088 17.4693 18.9088 16.9461C18.9088 16.4267 19.3313 16.0004 19.8545 16.0004Z" fill="#BA4350"/>
<path opacity="0.5" fill-rule="evenodd" clip-rule="evenodd" d="M15.8826 19.9182C15.6193 20.4646 15.2238 20.9376 14.7432 21.2978H17.0183C16.5377 20.9373 16.1464 20.4646 15.8826 19.9182V19.9182Z" fill="#BA4350"/>
<path opacity="0.5" fill-rule="evenodd" clip-rule="evenodd" d="M7.93311 21.2985H10.2083C9.72764 20.9379 9.3363 20.4652 9.06879 19.9188C8.80511 20.4652 8.41376 20.9382 7.93311 21.2985V21.2985Z" fill="#BA4350"/>
<path fill-rule="evenodd" clip-rule="evenodd" d="M23.0674 18.2715C23.0674 19.9418 24.4238 21.2982 26.094 21.2982C27.7643 21.2982 29.1207 19.9418 29.1207 18.2715C29.1207 16.6013 27.7643 15.2449 26.094 15.2449C24.4238 15.2449 23.0674 16.6051 23.0674 18.2715ZM26.664 16.0005C27.1872 16.0005 27.6097 16.423 27.6097 16.9462C27.6097 17.4694 27.1872 17.8919 26.664 17.8919C26.1408 17.8919 25.7183 17.4694 25.7183 16.9462C25.7183 16.4268 26.1408 16.0005 26.664 16.0005Z" fill="#BA4350"/>
<path fill-rule="evenodd" clip-rule="evenodd" d="M12.4759 21.2984C14.1461 21.2984 15.5025 19.942 15.5025 18.2718C15.5025 16.6015 14.1461 15.2451 12.4759 15.2451C10.8056 15.2451 9.44922 16.6015 9.44922 18.2718C9.44922 19.942 10.8094 21.2984 12.4759 21.2984ZM13.0454 16.0004C13.5686 16.0004 13.9911 16.4229 13.9911 16.9461C13.9911 17.4693 13.5686 17.8918 13.0454 17.8918C12.5222 17.8918 12.0997 17.4693 12.0997 16.9461C12.0997 16.4267 12.5222 16.0004 13.0454 16.0004Z" fill="#BA4350"/>
<path fill-rule="evenodd" clip-rule="evenodd" d="M10.4411 28.8629H21.5558C22.6797 28.8629 23.6136 28.0453 23.796 26.9716H8.20117C8.38317 28.0449 9.3175 28.8629 10.4413 28.8629H10.4411Z" fill="#BA4350"/>
<path fill-rule="evenodd" clip-rule="evenodd" d="M5.66728 21.2984C7.33754 21.2984 8.69393 19.942 8.69393 18.2718C8.69393 16.6015 7.33754 15.2451 5.66728 15.2451C3.99701 15.2451 2.64062 16.6015 2.64062 18.2718C2.64062 19.942 4.0008 21.2984 5.66728 21.2984V21.2984ZM6.23682 16.0004C6.76001 16.0004 7.18252 16.4229 7.18252 16.9461C7.18252 17.4693 6.76001 17.8918 6.23682 17.8918C5.71363 17.8918 5.29113 17.4693 5.29113 16.9461C5.29113 16.4267 5.71363 16.0004 6.23682 16.0004V16.0004Z" fill="#BA4350"/>
<path opacity="0.5" fill-rule="evenodd" clip-rule="evenodd" d="M5.5233 26.2163H26.4775C28.8533 26.2163 30.8104 24.3834 31 22.054H1C1.18997 24.383 3.14707 26.2163 5.52252 26.2163H5.5233Z" fill="#BA4350"/>
<path opacity="0.5" fill-rule="evenodd" clip-rule="evenodd" d="M22.6917 19.9182C22.4284 20.4646 22.0329 20.9376 21.5522 21.2978H23.827C23.3464 20.9373 22.955 20.4646 22.6913 19.9182H22.6917Z" fill="#BA4350"/>
<path fill-rule="evenodd" clip-rule="evenodd" d="M9.07255 15.2443C10.7443 15.2443 12.0992 13.8891 12.0992 12.2177C12.0992 10.546 10.7444 9.19104 9.07255 9.19104C7.40121 9.19104 6.0459 10.5459 6.0459 12.2177C6.0459 13.889 7.40112 15.2443 9.07255 15.2443ZM9.58614 11.9036C10.1317 11.9036 10.5739 11.4614 10.5739 10.9159C10.5739 10.3704 10.1317 9.92813 9.58614 9.92813C9.04061 9.92813 8.59838 10.3704 8.59838 10.9159C8.59838 11.4614 9.04061 11.9036 9.58614 11.9036Z" fill="#BA4350"/>
<path fill-rule="evenodd" clip-rule="evenodd" d="M12.4764 9.19078C14.1481 9.19078 15.503 7.83556 15.503 6.16374C15.503 4.4924 14.1481 3.13708 12.4764 3.13708C10.8046 3.13708 9.44971 4.4923 9.44971 6.16374C9.44971 7.83546 10.8046 9.19078 12.4764 9.19078ZM13.0805 5.8251C13.626 5.8251 14.0682 5.38286 14.0682 4.83734C14.0682 4.29182 13.626 3.84959 13.0805 3.84959C12.5349 3.84959 12.0927 4.29182 12.0927 4.83734C12.0927 5.38286 12.5349 5.8251 13.0805 5.8251Z" fill="#BA4350"/>
<path fill-rule="evenodd" clip-rule="evenodd" d="M15.8821 15.2443C17.5538 15.2443 18.9088 13.8891 18.9088 12.2177C18.9088 10.546 17.5538 9.19104 15.8821 9.19104C14.2104 9.19104 12.8555 10.5459 12.8555 12.2177C12.8555 13.889 14.2104 15.2443 15.8821 15.2443ZM16.4239 11.9036C16.9694 11.9036 17.4117 11.4614 17.4117 10.9159C17.4117 10.3704 16.9694 9.92813 16.4239 9.92813C15.8784 9.92813 15.4361 10.3704 15.4361 10.9159C15.4361 11.4614 15.8784 11.9036 16.4239 11.9036Z" fill="#BA4350"/>
<path fill-rule="evenodd" clip-rule="evenodd" d="M19.2854 9.19078C20.9572 9.19078 22.3125 7.83556 22.3125 6.16374C22.3125 4.4924 20.9573 3.13708 19.2854 3.13708C17.6141 3.13708 16.2588 4.4923 16.2588 6.16374C16.2588 7.83546 17.614 9.19078 19.2854 9.19078ZM19.7679 5.8251C20.3134 5.8251 20.7556 5.38286 20.7556 4.83734C20.7556 4.29182 20.3134 3.84959 19.7679 3.84959C19.2223 3.84959 18.7801 4.29182 18.7801 4.83734C18.7801 5.38286 19.2223 5.8251 19.7679 5.8251Z" fill="#BA4350"/>
<path fill-rule="evenodd" clip-rule="evenodd" d="M22.6927 15.2443C24.3644 15.2443 25.7197 13.8891 25.7197 12.2177C25.7197 10.546 24.3645 9.19104 22.6927 9.19104C21.0213 9.19104 19.666 10.5459 19.666 12.2177C19.666 13.889 21.0212 15.2443 22.6927 15.2443ZM23.2626 11.9036C23.8082 11.9036 24.2504 11.4614 24.2504 10.9159C24.2504 10.3704 23.8082 9.92813 23.2626 9.92813C22.7171 9.92813 22.2749 10.3704 22.2749 10.9159C22.2749 11.4614 22.7171 11.9036 23.2626 11.9036Z" fill="#BA4350"/>
</svg>
