<svg width="55" height="32" viewBox="0 0 55 32" fill="none" xmlns="http://www.w3.org/2000/svg">
<path d="M23.3928 26.4835H24.7675C25.0745 24.5291 26.8179 23.0162 28.8026 23.0162C30.7787 23.0162 32.5401 24.5291 32.8378 26.4835H42.3546V20.881H24.1356C23.7253 20.881 23.3926 21.2137 23.3926 21.624L23.3928 26.4835Z" fill="#BA4350"/>
<path opacity="0.5" d="M37.8393 7.4293C38.5665 7.00917 38.8169 6.07577 38.3971 5.34804C37.9715 4.61117 37.0319 4.3761 36.3155 4.79024C35.8251 5.07357 34.6847 6.62671 33.7573 8.02652C35.4333 7.92399 37.3483 7.71321 37.8393 7.42931L37.8393 7.4293Z" fill="#BA4350"/>
<path opacity="0.5" d="M34.1203 3.52346C34.1203 2.6832 33.4365 2 32.5962 2C31.7559 2 31.0728 2.68347 31.0728 3.52346C31.0728 4.09068 31.8474 5.85434 32.5962 7.35725C33.3457 5.85434 34.1203 4.0904 34.1203 3.52346Z" fill="#BA4350"/>
<path opacity="0.5" d="M27.3551 7.43005C27.8461 7.71337 29.7611 7.92472 31.4374 8.02755C30.51 6.62722 29.3696 5.07459 28.8792 4.79068C28.1597 4.37511 27.2118 4.63045 26.7976 5.34848C26.3775 6.07593 26.6277 7.0099 27.3551 7.43003V7.43005Z" fill="#BA4350"/>
<path opacity="0.5" d="M33.2412 13.0137H39.215V18.7986C39.215 19.291 38.8158 19.6902 38.3233 19.6902H33.2412V13.0137Z" fill="#BA4350"/>
<path opacity="0.5" d="M31.9825 11.8412V9.31177H25.3921C24.8997 9.31177 24.5005 9.71097 24.5005 10.2034V11.8412H31.9825Z" fill="#BA4350"/>
<path opacity="0.5" d="M33.2104 11.8412H40.6932V10.2034C40.6932 9.71097 40.294 9.31177 39.8016 9.31177H33.2104V11.8412Z" fill="#BA4350"/>
<path opacity="0.5" d="M25.9795 13.0137H31.9532V19.6902H26.8711C26.3787 19.6902 25.9795 19.291 25.9795 18.7986V13.0137Z" fill="#BA4350"/>
<path d="M48.5733 24.2972C47.005 24.2972 45.7212 25.5865 45.7212 27.1494C45.7212 28.722 47.0007 30.0012 48.5733 30.0012C50.1459 30.0012 51.4255 28.7217 51.4255 27.1494C51.4255 25.6099 50.1142 24.2972 48.5733 24.2972Z" fill="#BA4350"/>
<path d="M43.5845 14.352V26.4813H44.547C44.8766 24.556 46.6131 23.0688 48.5727 23.0688C50.5229 23.0688 52.2757 24.5569 52.5984 26.4813H54.9202L54.9205 20.0933L50.726 14.3517L43.5845 14.352Z" fill="#BA4350"/>
<path d="M28.8032 24.2446C27.23 24.2446 25.9502 25.5245 25.9502 27.0976C25.9502 28.6682 27.23 29.9466 28.8032 29.9466C30.3764 29.9466 31.6562 28.6683 31.6562 27.0976C31.6562 25.5245 30.3761 24.2446 28.8032 24.2446Z" fill="#BA4350"/>
<path fill-rule="evenodd" clip-rule="evenodd" d="M10.1714 12.456C10.1714 12.1482 10.4209 11.8987 10.7287 11.8987L20.039 11.8987C20.3468 11.8987 20.5963 12.1482 20.5963 12.456C20.5963 12.7637 20.3468 13.0132 20.039 13.0132L10.7287 13.0132C10.4209 13.0132 10.1714 12.7637 10.1714 12.456Z" fill="#BA4350"/>
<path fill-rule="evenodd" clip-rule="evenodd" d="M0.442871 18.1951C0.442872 17.8873 0.692373 17.6378 1.00015 17.6378L20.0388 17.6379C20.3465 17.6379 20.596 17.8874 20.596 18.1951C20.596 18.5029 20.3465 18.7524 20.0388 18.7524L1.00015 18.7524C0.69237 18.7524 0.44287 18.5029 0.442871 18.1951Z" fill="#BA4350"/>
<path fill-rule="evenodd" clip-rule="evenodd" d="M4.9585 23.9342C4.9585 23.6265 5.208 23.377 5.51577 23.377H20.0386C20.3463 23.377 20.5958 23.6265 20.5958 23.9342C20.5958 24.242 20.3463 24.4915 20.0386 24.4915H5.51577C5.208 24.4915 4.9585 24.242 4.9585 23.9342Z" fill="#BA4350"/>
</svg>
