<svg width="32" height="32" viewBox="0 0 32 32" fill="none" xmlns="http://www.w3.org/2000/svg">
<path d="M16.7462 4.00843C18.2285 1.995 21.0624 1.56445 23.0758 3.04677L25.6376 4.9328C27.651 6.41512 28.0816 9.24899 26.5993 11.2624V11.2624L16.7462 4.00843V4.00843Z" fill="#BA4350"/>
<path fill-rule="evenodd" clip-rule="evenodd" d="M11.9366 15.9508L18.3732 7.20779L16.1031 5.53659L9.75818 14.1552L9.62966 15.4105C9.74825 15.5882 9.89067 15.7364 10.048 15.8522C10.5258 16.204 11.2038 16.3051 11.9366 15.9508ZM11.6799 17.0964C10.8873 17.2786 10.1145 17.1235 9.49877 16.689L8.86485 22.8809L10.6916 24.2258L16.5599 21.9015C16.5415 21.8884 16.5232 21.8752 16.5051 21.8618C15.8683 21.3888 15.4374 20.6776 15.3767 19.8581C14.5391 20.043 13.6441 19.7413 12.985 19.2561C12.3124 18.761 11.7481 17.9749 11.6799 17.0964ZM16.4121 19.2668C16.2541 20.0018 16.5509 20.6501 17.1014 21.059C17.3065 21.2113 17.548 21.3304 17.8145 21.4046L18.9946 20.9372L25.331 12.3301L22.8587 10.51L16.4121 19.2668ZM22.0534 9.91714L15.5929 18.6928C15.0559 19.0586 14.2639 18.9559 13.5779 18.4508C12.8944 17.9477 12.5449 17.2114 12.7218 16.571L19.1785 7.80065L22.0534 9.91714ZM19.6297 21.7612L26.7292 12.1176L15.8906 4.13843L8.79116 13.782L7.48165 26.5728L19.6297 21.7612ZM9.59494 24.6602L8.74663 24.0357L8.64413 25.0368L9.59494 24.6602Z" fill="#BA4350"/>
<path opacity="0.5" d="M10.3386 25.0071L8.61768 23.2862L9.1853 16.4747L12.0596 16.4023L13.2069 18.6969L15.5015 19.2705L17.2225 22.1388L10.3386 25.0071Z" fill="#BA4350"/>
<path fill-rule="evenodd" clip-rule="evenodd" d="M7.65237 27.4402L7.47098 28.558C6.6298 28.2777 5.37061 27.9844 4.531 27.9844C2.86224 27.9844 3.57791 29.2973 4.94489 29.5148C5.94599 29.6741 7.47098 29.7054 8.61828 29.1317C11.4865 27.9844 14.1994 31.4263 12.1916 32C12.94 31.7862 11.9894 30.6439 11.4865 30.2185C10.727 29.5757 9.55734 29.5226 8.04463 30.279C7.10083 30.7509 5.93931 30.8348 4.7646 30.6479C3.6549 30.4713 2.30811 29.8705 2.30811 28.5581C2.30811 25.9544 6.23446 26.9676 7.65237 27.4402Z" fill="#BA4350"/>
</svg>
