<svg width="32" height="32" viewBox="0 0 32 32" fill="none" xmlns="http://www.w3.org/2000/svg">
<g clip-path="url(#clip0_2877_60253)">
<path opacity="0.5" d="M16.749 24.2482C24.0267 19.3836 25.4056 17.5451 25.6355 16.9322C25.2908 16.7406 24.9461 16.4726 24.6779 16.0895C24.0649 16.2811 23.452 16.2811 22.8776 16.1277C22.5711 16.051 22.3031 15.8979 22.0349 15.6681C21.422 15.1701 21.1155 14.4041 21.1155 13.5614C20.6942 13.9827 20.1962 14.2125 19.6217 14.2892C19.3152 14.3274 19.0088 14.2892 18.7023 14.2125C18.281 14.0976 17.8978 13.8294 17.5916 13.5232C18.1279 16.1662 17.7832 19.6901 15.4849 24.3249C15.7913 24.2867 16.2509 24.2482 16.7489 24.2482L16.749 24.2482Z" fill="#BA4350"/>
<path opacity="0.5" d="M16.3273 13.3317C16.0208 13.3317 15.7528 13.2935 15.4463 13.2168C15.1399 13.1401 14.8719 12.987 14.6036 12.7572C14.0674 12.3359 13.761 11.6847 13.7227 10.9187C13.2632 11.7996 12.4969 12.3743 11.5778 12.4507C11.2713 12.4889 10.9649 12.4507 10.6584 12.3358C10.1222 12.1827 9.62415 11.7996 9.2028 11.3016C8.85813 11.4164 8.51347 11.4547 8.16853 11.4547C7.97696 12.0291 8.01543 14.2125 11.386 22.5628C11.9222 22.9841 12.3818 23.3288 12.6118 23.5586C13.0332 23.4437 13.5312 23.4055 13.9908 23.5586C14.1439 23.5968 14.259 23.6735 14.4121 23.7502C16.4422 19.7285 17.0552 16.2043 16.3273 13.3315L16.3273 13.3317Z" fill="#BA4350"/>
<path opacity="0.5" d="M14.029 28.1168C13.6076 28.2317 13.1096 28.2699 12.6501 28.1168C12.1905 27.9637 11.8074 27.6955 11.5009 27.3508C11.3478 27.3508 11.1562 27.389 10.9264 27.4275C9.04947 28.8831 8.973 29.1511 8.93455 29.266C8.74298 29.879 9.08765 30.5683 9.73907 30.7599L13.5695 31.9472C14.2206 32.1388 14.8717 31.7941 15.0633 31.1427C15.1015 31.0278 15.1782 30.7596 14.4504 28.4997C14.2591 28.3466 14.1439 28.2317 14.029 28.1168L14.029 28.1168Z" fill="#BA4350"/>
<path d="M11.042 26.5081C10.9271 26.0867 10.9271 25.6272 11.042 25.1673C11.1951 24.7078 11.4633 24.3246 11.7698 24.0567C11.3867 23.712 10.7356 23.214 9.96955 22.7159C8.70552 21.9114 8.16927 23.0223 7.8246 24.1715C7.47993 25.3207 7.28836 26.5463 8.7822 26.5847C9.70156 26.6229 10.5443 26.5462 11.0421 26.508L11.042 26.5081Z" fill="#BA4350"/>
<path d="M17.8596 25.1292C16.9787 25.091 16.1742 25.1674 15.638 25.2441C15.7529 25.6654 15.7529 26.125 15.638 26.5848C15.4849 27.0444 15.2166 27.4275 14.9102 27.6955C15.2933 28.0402 15.9444 28.5382 16.7104 29.0363C17.9745 29.8408 18.5107 28.7298 18.8554 27.5807C19.1621 26.393 19.3534 25.1675 17.8596 25.1292L17.8596 25.1292Z" fill="#BA4350"/>
<path d="M13.7608 24.4397C12.9947 24.2099 12.152 24.6313 11.9222 25.4355C11.6925 26.2015 12.1138 27.0443 12.9181 27.274C13.7226 27.5038 14.5268 27.0825 14.7566 26.2782C14.9864 25.5122 14.565 24.6695 13.7608 24.4397Z" fill="#BA4350"/>
<path d="M32.0323 9.88423C31.9556 9.15639 31.2277 8.58196 30.232 8.39038C30.6151 7.43278 30.5767 6.55186 30.0022 6.05384C29.4278 5.59428 28.5084 5.70917 27.6657 6.24542C27.2825 5.32605 26.5932 4.7134 25.8654 4.75157C25.5207 4.78977 25.2143 4.94314 24.9845 5.21113C25.444 5.67069 25.7123 6.20696 25.789 6.81989C25.8272 7.16456 25.789 7.47102 25.6741 7.81572C26.1721 7.70083 26.6699 7.66262 27.2061 7.81572C28.6233 8.23708 29.4277 9.76915 29.0064 11.1865C28.585 12.6037 27.053 13.4082 25.6356 12.9868C25.0227 12.7952 24.5249 12.4124 24.2184 11.9143C23.7971 12.4123 23.1841 12.6803 22.4948 12.7188C22.2265 13.5615 22.3417 14.3276 22.8395 14.7489C23.4139 15.2085 24.3333 15.0936 25.176 14.5574C25.5592 15.4767 26.2485 16.0894 26.9763 16.0512C27.7041 15.9745 28.2786 15.2467 28.4701 14.2509C29.4277 14.6341 30.3087 14.5956 30.8067 14.0211C31.2662 13.4467 31.1514 12.5273 30.6151 11.6846C31.496 11.3399 32.1087 10.6503 32.0323 9.88432L32.0323 9.88423Z" fill="#BA4350"/>
<path d="M25.9415 11.991C26.7842 12.2593 27.7037 11.7613 27.9716 10.9185C28.2399 10.0758 27.7419 9.15642 26.8991 8.88843C26.0565 8.62017 25.137 9.11821 24.869 9.96093C24.601 10.8036 25.0606 11.723 25.9415 11.991V11.991Z" fill="#BA4350"/>
<path d="M9.70067 9.84595C10.0838 10.7653 10.7732 11.378 11.5009 11.3398C12.1903 11.2631 12.7268 10.612 12.9566 9.73104C12.497 9.30968 12.2287 8.77344 12.1906 8.16051V8.1223C11.5776 8.42877 10.8883 8.50545 10.1987 8.2754C8.78151 7.85405 7.97706 6.32197 8.3984 4.9046C8.81976 3.48742 10.3518 2.68297 11.7692 3.10431C12.3821 3.29589 12.9184 3.67876 13.2248 4.21499C13.3015 3.83184 13.4546 3.44898 13.7229 3.14248C14.0675 2.72112 14.5274 2.45315 15.0636 2.2998C15.0254 1.87844 14.8721 1.53379 14.5656 1.30396C13.9911 0.8444 13.0717 0.959291 12.2291 1.49554C11.8459 0.576177 11.1566 -0.0364796 10.4288 0.00168749C9.70094 0.0783704 9.12652 0.806205 8.93493 1.80197C7.97734 1.41882 7.09642 1.4573 6.5984 2.03175C6.13883 2.6062 6.25372 3.5256 6.78997 4.36829C5.87061 4.75143 5.25795 5.44079 5.29612 6.16857C5.3728 6.89641 6.10064 7.47083 7.0964 7.66242C6.71325 8.58178 6.75173 9.50093 7.32618 9.99895C7.93857 10.497 8.858 10.4203 9.70068 9.84585L9.70067 9.84595Z" fill="#BA4350"/>
<path d="M9.43274 5.2112C9.16448 6.05388 9.66252 6.97331 10.5052 7.2413C11.3479 7.50956 12.2674 7.01152 12.5353 6.16879C12.8036 5.32611 12.3056 4.40668 11.4628 4.13869C10.6202 3.8707 9.701 4.33026 9.43274 5.2112Z" fill="#BA4350"/>
<path d="M14.8331 6.20712C13.9138 6.59027 13.3011 7.27963 13.3775 8.00741C13.4542 8.73525 14.182 9.30967 15.1778 9.50126C14.7946 10.4206 14.8331 11.3398 15.4076 11.8378C15.982 12.2974 16.9014 12.1825 17.7441 11.6462C18.1273 12.5656 18.8166 13.1782 19.5444 13.1018C20.2722 13.0251 20.8467 12.2973 21.0382 11.3016C21.9576 11.6847 22.8768 11.6462 23.3748 11.0718C23.8343 10.4973 23.7195 9.57792 23.1832 8.73523C24.1026 8.35209 24.7152 7.66273 24.6388 6.93495C24.5621 6.20711 23.8343 5.63269 22.8385 5.4411C23.2217 4.52174 23.1832 3.60259 22.6088 3.10457C22.0343 2.645 21.1149 2.75989 20.2722 3.29614C19.8891 2.37678 19.1997 1.76412 18.4719 1.84053C17.7441 1.91721 17.1697 2.64504 16.9781 3.64081C16.0587 3.25766 15.1396 3.29613 14.6416 3.87059C14.1435 4.44504 14.2587 5.36444 14.8331 6.20712V6.20712ZM16.4037 6.70489C16.825 5.28772 18.3571 4.48327 19.7745 4.90461C21.1916 5.32597 21.9961 6.85804 21.5747 8.27542C21.1534 9.69259 19.6213 10.497 18.2039 10.0757C16.7865 9.61613 15.9823 8.12227 16.4037 6.70489Z" fill="#BA4350"/>
<path d="M18.5101 9.04157C19.3528 9.30983 20.2722 8.81179 20.5402 7.96907C20.8085 7.12638 20.3105 6.20695 19.4677 5.93896C18.625 5.67071 17.7056 6.16874 17.4376 7.01147C17.1694 7.85415 17.6674 8.77358 18.5101 9.04157Z" fill="#BA4350"/>
</g>
<defs>
<clipPath id="clip0_2877_60253">
<rect width="32" height="32" fill="white"/>
</clipPath>
</defs>
</svg>
