<svg width="32" height="32" viewBox="0 0 32 32" fill="none" xmlns="http://www.w3.org/2000/svg">
<path opacity="0.5" d="M0.933892 5.06545L1.41218 5.05921C1.56188 5.05734 1.7098 5.09108 1.8432 5.15754C1.9766 5.224 2.09149 5.32118 2.17796 5.4407L2.45324 5.82168C2.55275 5.95934 2.68967 6.06702 2.8485 6.13253C3.00733 6.19804 3.18174 6.21878 3.352 6.19239C3.52225 6.166 3.68156 6.09353 3.81189 5.9832C3.94223 5.87286 4.03839 5.72905 4.0895 5.56804L4.23086 5.12314C4.27521 4.98328 4.35368 4.85608 4.4595 4.75249C4.56533 4.64891 4.69532 4.57205 4.83828 4.52855L5.29371 4.3903C5.4582 4.34015 5.60508 4.24602 5.71777 4.11855C5.83045 3.99108 5.90446 3.83534 5.93143 3.66891C5.9584 3.50247 5.93726 3.33198 5.8704 3.17668C5.80354 3.02137 5.69362 2.88744 5.55305 2.79001L5.16351 2.52078C5.0413 2.43621 4.94194 2.32385 4.87399 2.19338C4.80603 2.06291 4.77153 1.91824 4.77344 1.77183L4.77929 1.30406C4.78149 1.13538 4.73532 0.96948 4.64602 0.82516C4.55672 0.68084 4.42787 0.563876 4.27406 0.487529C4.12026 0.411182 3.94766 0.378505 3.77584 0.393205C3.60402 0.407905 3.43984 0.469393 3.30193 0.570697L2.92036 0.84928C2.8002 0.937072 2.65999 0.994924 2.51184 1.01783C2.3637 1.04075 2.21207 1.02803 2.07008 0.980776L1.61996 0.831089C1.4571 0.77774 1.28226 0.76986 1.11507 0.808336C0.947883 0.846811 0.794976 0.930117 0.673528 1.0489C0.55208 1.16767 0.466902 1.31722 0.427561 1.48073C0.388221 1.64424 0.396278 1.81525 0.450826 1.97453L0.603877 2.41579C0.652189 2.55466 0.665195 2.70295 0.641769 2.84784C0.618344 2.99273 0.559192 3.12986 0.469426 3.24738L0.18405 3.62108C0.0808356 3.75601 0.0182724 3.9165 0.00343241 4.08439C-0.0114076 4.25228 0.0220674 4.42088 0.100074 4.57114C0.17808 4.7214 0.297507 4.84732 0.444856 4.93467C0.592204 5.02202 0.761599 5.06732 0.933892 5.06545Z" fill="#BA4350"/>
<path d="M28.7432 10.8205V11.3403C28.7432 11.4781 28.7992 11.6103 28.8988 11.7078C28.9985 11.8053 29.1336 11.86 29.2746 11.86C29.4155 11.86 29.5507 11.8053 29.6504 11.7078C29.75 11.6103 29.806 11.4781 29.806 11.3403V10.8205C29.806 10.6827 29.75 10.5505 29.6504 10.453C29.5507 10.3555 29.4155 10.3008 29.2746 10.3008C29.1336 10.3008 28.9985 10.3555 28.8988 10.453C28.7992 10.5505 28.7432 10.6827 28.7432 10.8205Z" fill="#BA4350"/>
<path d="M31.4003 8.74158H30.8688C30.7279 8.74158 30.5927 8.79634 30.4931 8.89381C30.3934 8.99128 30.3374 9.12348 30.3374 9.26132C30.3374 9.39917 30.3934 9.53137 30.4931 9.62884C30.5927 9.72631 30.7279 9.78106 30.8688 9.78106H31.4003C31.5412 9.78106 31.6764 9.72631 31.776 9.62884C31.8757 9.53137 31.9317 9.39917 31.9317 9.26132C31.9317 9.12348 31.8757 8.99128 31.776 8.89381C31.6764 8.79634 31.5412 8.74158 31.4003 8.74158Z" fill="#BA4350"/>
<path d="M29.806 7.18234C29.806 7.0445 29.75 6.9123 29.6504 6.81483C29.5507 6.71736 29.4155 6.6626 29.2746 6.6626C29.1336 6.6626 28.9985 6.71736 28.8988 6.81483C28.7992 6.9123 28.7432 7.0445 28.7432 7.18234V7.70209C28.7432 7.83993 28.7992 7.97213 28.8988 8.0696C28.9985 8.16707 29.1336 8.22183 29.2746 8.22183C29.4155 8.22183 29.5507 8.16707 29.6504 8.0696C29.75 7.97213 29.806 7.83993 29.806 7.70209V7.18234Z" fill="#BA4350"/>
<path d="M27.1491 8.74158C27.0082 8.74158 26.873 8.79634 26.7733 8.89381C26.6737 8.99128 26.6177 9.12348 26.6177 9.26132C26.6177 9.39917 26.6737 9.53137 26.7733 9.62884C26.873 9.72631 27.0082 9.78106 27.1491 9.78106H27.6805C27.8215 9.78106 27.9566 9.72631 28.0563 9.62884C28.156 9.53137 28.212 9.39917 28.212 9.26132C28.212 9.12348 28.156 8.99128 28.0563 8.89381C27.9566 8.79634 27.8215 8.74158 27.6805 8.74158H27.1491Z" fill="#BA4350"/>
<path d="M29.2746 9.78106C29.5681 9.78106 29.806 9.54837 29.806 9.26132C29.806 8.97427 29.5681 8.74158 29.2746 8.74158C28.9811 8.74158 28.7432 8.97427 28.7432 9.26132C28.7432 9.54837 28.9811 9.78106 29.2746 9.78106Z" fill="#BA4350"/>
<path d="M10.6748 5.10345C10.6748 5.2413 10.7308 5.3735 10.8305 5.47097C10.9301 5.56844 11.0653 5.6232 11.2062 5.6232C11.3472 5.6232 11.4823 5.56844 11.582 5.47097C11.6817 5.3735 11.7377 5.2413 11.7377 5.10345V4.58371C11.7377 4.44586 11.6817 4.31367 11.582 4.21619C11.4823 4.11872 11.3472 4.06396 11.2062 4.06396C11.0653 4.06396 10.9301 4.11872 10.8305 4.21619C10.7308 4.31367 10.6748 4.44586 10.6748 4.58371V5.10345Z" fill="#BA4350"/>
<path d="M13.3319 3.54413C13.4728 3.54413 13.608 3.48937 13.7077 3.3919C13.8073 3.29443 13.8633 3.16223 13.8633 3.02438C13.8633 2.88654 13.8073 2.75434 13.7077 2.65687C13.608 2.5594 13.4728 2.50464 13.3319 2.50464H12.8005C12.6595 2.50464 12.5244 2.5594 12.4247 2.65687C12.325 2.75434 12.269 2.88654 12.269 3.02438C12.269 3.16223 12.325 3.29443 12.4247 3.3919C12.5244 3.48937 12.6595 3.54413 12.8005 3.54413H13.3319Z" fill="#BA4350"/>
<path d="M11.7377 1.46515V0.945404C11.7377 0.807559 11.6817 0.67536 11.582 0.577889C11.4823 0.480418 11.3472 0.425659 11.2062 0.425659C11.0653 0.425659 10.9301 0.480418 10.8305 0.577889C10.7308 0.67536 10.6748 0.807559 10.6748 0.945404V1.46515C10.6748 1.60299 10.7308 1.73519 10.8305 1.83266C10.9301 1.93013 11.0653 1.98489 11.2062 1.98489C11.3472 1.98489 11.4823 1.93013 11.582 1.83266C11.6817 1.73519 11.7377 1.60299 11.7377 1.46515Z" fill="#BA4350"/>
<path d="M9.61217 3.54413C9.75311 3.54413 9.88828 3.48937 9.98794 3.3919C10.0876 3.29443 10.1436 3.16223 10.1436 3.02438C10.1436 2.88654 10.0876 2.75434 9.98794 2.65687C9.88828 2.5594 9.75311 2.50464 9.61217 2.50464H9.08074C8.9398 2.50464 8.80463 2.5594 8.70497 2.65687C8.60531 2.75434 8.54932 2.88654 8.54932 3.02438C8.54932 3.16223 8.60531 3.29443 8.70497 3.3919C8.80463 3.48937 8.9398 3.54413 9.08074 3.54413H9.61217Z" fill="#BA4350"/>
<path d="M11.2062 3.54413C11.4997 3.54413 11.7377 3.31143 11.7377 3.02438C11.7377 2.73734 11.4997 2.50464 11.2062 2.50464C10.9127 2.50464 10.6748 2.73734 10.6748 3.02438C10.6748 3.31143 10.9127 3.54413 11.2062 3.54413Z" fill="#BA4350"/>
<path d="M2.1709 12.8996V13.4194C2.1709 13.5572 2.22689 13.6894 2.32655 13.7869C2.42621 13.8844 2.56138 13.9391 2.70232 13.9391C2.84327 13.9391 2.97844 13.8844 3.0781 13.7869C3.17776 13.6894 3.23375 13.5572 3.23375 13.4194V12.8996C3.23375 12.7618 3.17776 12.6296 3.0781 12.5321C2.97844 12.4346 2.84327 12.3799 2.70232 12.3799C2.56138 12.3799 2.42621 12.4346 2.32655 12.5321C2.22689 12.6296 2.1709 12.7618 2.1709 12.8996Z" fill="#BA4350"/>
<path d="M4.82848 10.8206H4.29705C4.15611 10.8206 4.02094 10.8753 3.92128 10.9728C3.82161 11.0703 3.76562 11.2025 3.76562 11.3403C3.76562 11.4781 3.82161 11.6103 3.92128 11.7078C4.02094 11.8053 4.15611 11.86 4.29705 11.86H4.82848C4.96942 11.86 5.10459 11.8053 5.20425 11.7078C5.30391 11.6103 5.3599 11.4781 5.3599 11.3403C5.3599 11.2025 5.30391 11.0703 5.20425 10.9728C5.10459 10.8753 4.96942 10.8206 4.82848 10.8206Z" fill="#BA4350"/>
<path d="M3.23375 9.26132C3.23375 9.12348 3.17776 8.99128 3.0781 8.89381C2.97844 8.79634 2.84327 8.74158 2.70232 8.74158C2.56138 8.74158 2.42621 8.79634 2.32655 8.89381C2.22689 8.99128 2.1709 9.12348 2.1709 9.26132V9.78106C2.1709 9.91891 2.22689 10.0511 2.32655 10.1486C2.42621 10.2461 2.56138 10.3008 2.70232 10.3008C2.84327 10.3008 2.97844 10.2461 3.0781 10.1486C3.17776 10.0511 3.23375 9.91891 3.23375 9.78106V9.26132Z" fill="#BA4350"/>
<path d="M0.577324 10.8206C0.436381 10.8206 0.301211 10.8753 0.201549 10.9728C0.101888 11.0703 0.0458984 11.2025 0.0458984 11.3403C0.0458984 11.4781 0.101888 11.6103 0.201549 11.7078C0.301211 11.8053 0.436381 11.86 0.577324 11.86H1.10875C1.24969 11.86 1.38486 11.8053 1.48452 11.7078C1.58419 11.6103 1.64018 11.4781 1.64018 11.3403C1.64018 11.2025 1.58419 11.0703 1.48452 10.9728C1.38486 10.8753 1.24969 10.8206 1.10875 10.8206H0.577324Z" fill="#BA4350"/>
<path d="M2.70232 11.86C2.99582 11.86 3.23375 11.6273 3.23375 11.3403C3.23375 11.0533 2.99582 10.8206 2.70232 10.8206C2.40883 10.8206 2.1709 11.0533 2.1709 11.3403C2.1709 11.6273 2.40883 11.86 2.70232 11.86Z" fill="#BA4350"/>
<path d="M10.1432 30.0511C10.0023 30.0511 9.86713 30.1059 9.76747 30.2034C9.66781 30.3008 9.61182 30.433 9.61182 30.5709V31.0906C9.61182 31.2285 9.66781 31.3607 9.76747 31.4581C9.86713 31.5556 10.0023 31.6104 10.1432 31.6104C10.2842 31.6104 10.4194 31.5556 10.519 31.4581C10.6187 31.3607 10.6747 31.2285 10.6747 31.0906V30.5709C10.6747 30.433 10.6187 30.3008 10.519 30.2034C10.4194 30.1059 10.2842 30.0511 10.1432 30.0511Z" fill="#BA4350"/>
<path d="M12.2679 28.4919H11.7365C11.5956 28.4919 11.4604 28.5467 11.3607 28.6442C11.2611 28.7416 11.2051 28.8738 11.2051 29.0117C11.2051 29.1495 11.2611 29.2817 11.3607 29.3792C11.4604 29.4767 11.5956 29.5314 11.7365 29.5314H12.2679C12.4089 29.5314 12.544 29.4767 12.6437 29.3792C12.7434 29.2817 12.7994 29.1495 12.7994 29.0117C12.7994 28.8738 12.7434 28.7416 12.6437 28.6442C12.544 28.5467 12.4089 28.4919 12.2679 28.4919Z" fill="#BA4350"/>
<path d="M10.1432 26.413C10.0023 26.413 9.86713 26.4677 9.76747 26.5652C9.66781 26.6627 9.61182 26.7949 9.61182 26.9327V27.4525C9.61182 27.5903 9.66781 27.7225 9.76747 27.82C9.86713 27.9174 10.0023 27.9722 10.1432 27.9722C10.2842 27.9722 10.4194 27.9174 10.519 27.82C10.6187 27.7225 10.6747 27.5903 10.6747 27.4525V26.9327C10.6747 26.7949 10.6187 26.6627 10.519 26.5652C10.4194 26.4677 10.2842 26.413 10.1432 26.413Z" fill="#BA4350"/>
<path d="M8.5482 28.4919H8.01678C7.87583 28.4919 7.74066 28.5467 7.641 28.6442C7.54134 28.7416 7.48535 28.8738 7.48535 29.0117C7.48535 29.1495 7.54134 29.2817 7.641 29.3792C7.74066 29.4767 7.87583 29.5314 8.01678 29.5314H8.5482C8.68915 29.5314 8.82432 29.4767 8.92398 29.3792C9.02364 29.2817 9.07963 29.1495 9.07963 29.0117C9.07963 28.8738 9.02364 28.7416 8.92398 28.6442C8.82432 28.5467 8.68915 28.4919 8.5482 28.4919Z" fill="#BA4350"/>
<path d="M10.1432 29.5314C10.4367 29.5314 10.6747 29.2987 10.6747 29.0117C10.6747 28.7246 10.4367 28.4919 10.1432 28.4919C9.84974 28.4919 9.61182 28.7246 9.61182 29.0117C9.61182 29.2987 9.84974 29.5314 10.1432 29.5314Z" fill="#BA4350"/>
<path d="M10.0462 21.2067C10.1838 21.2297 10.3251 21.1988 10.4396 21.1208C10.5541 21.0427 10.6326 20.9237 10.6581 20.7895C10.6837 20.6553 10.6542 20.5167 10.5761 20.4035C10.498 20.2904 10.3775 20.2119 10.2407 20.1849C10.0972 20.1599 6.72482 19.5695 4.19151 21.3486C3.47231 21.8792 2.87434 22.5509 2.43591 23.3206C1.99748 24.0903 1.72824 24.9411 1.64545 25.8184C1.62558 25.9549 1.66195 26.0935 1.74656 26.2037C1.83117 26.3139 1.9571 26.3868 2.09663 26.4062C2.12141 26.4103 2.14645 26.4125 2.17156 26.413C2.29943 26.4129 2.42296 26.3677 2.5195 26.2856C2.61604 26.2036 2.67911 26.0903 2.69714 25.9665C2.76217 25.2296 2.98317 24.5139 3.34609 23.865C3.70901 23.216 4.20593 22.6479 4.80531 22.1968C6.96555 20.6755 10.017 21.2015 10.0462 21.2067Z" fill="#BA4350"/>
<path d="M11.4867 16.9785C11.6061 16.9057 11.6911 16.7894 11.723 16.6553C11.7549 16.5213 11.7311 16.3803 11.6568 16.2634C11.5914 16.1594 10.0205 13.7275 7.85071 13.4853C7.31555 13.4394 6.77684 13.5175 6.27827 13.7131C5.77969 13.9088 5.33527 14.2166 4.98101 14.6116C4.93033 14.6596 4.88993 14.717 4.86218 14.7805C4.83442 14.8439 4.81986 14.9122 4.81935 14.9812C4.81884 15.0502 4.83238 15.1186 4.8592 15.1824C4.88601 15.2463 4.92555 15.3042 4.97552 15.353C5.02548 15.4017 5.08487 15.4402 5.15022 15.4662C5.21556 15.4923 5.28556 15.5053 5.35612 15.5046C5.42668 15.504 5.49639 15.4895 5.56118 15.4622C5.62598 15.4349 5.68456 15.3952 5.73351 15.3455C5.97505 15.0637 6.28132 14.8418 6.6273 14.6979C6.97328 14.554 7.34916 14.4922 7.72423 14.5175C9.38335 14.701 10.7385 16.7914 10.7534 16.8127C10.7903 16.8707 10.8386 16.9209 10.8954 16.9606C10.9522 17.0003 11.0164 17.0286 11.0844 17.044C11.1524 17.0594 11.2228 17.0615 11.2917 17.0503C11.3605 17.0391 11.4265 17.0147 11.4857 16.9785H11.4867Z" fill="#BA4350"/>
<path d="M26.1863 3.53482C26.3226 3.50678 26.4421 3.42754 26.5193 3.31414C26.5964 3.20075 26.625 3.06226 26.5988 2.92849C26.5726 2.79471 26.4938 2.67634 26.3793 2.59883C26.2648 2.52132 26.1237 2.49088 25.9865 2.51405C23.9856 2.8893 22.4998 3.76819 21.5698 5.12524C20.6487 6.59817 20.3086 8.34914 20.6132 10.0498C20.6377 10.167 20.7028 10.2724 20.7974 10.3482C20.8921 10.4239 21.0106 10.4654 21.133 10.4656C21.1686 10.4659 21.2043 10.4626 21.2392 10.4557C21.3773 10.4285 21.4987 10.3488 21.5768 10.2341C21.6548 10.1194 21.6831 9.97909 21.6553 9.844C21.4127 8.41234 21.6971 6.94292 22.4578 5.69696C23.2241 4.58367 24.4793 3.85603 26.1863 3.53482Z" fill="#BA4350"/>
<path d="M16.5801 11.9328C16.6374 11.9717 16.7021 11.9992 16.7703 12.0137C16.8385 12.0282 16.909 12.0294 16.9777 12.0172C17.0464 12.005 17.1119 11.9798 17.1706 11.9428C17.2294 11.9059 17.28 11.858 17.3198 11.8019C17.3596 11.7458 17.3877 11.6825 17.4025 11.6158C17.4173 11.5491 17.4185 11.4802 17.4061 11.413C17.3936 11.3458 17.3678 11.2817 17.33 11.2243C17.2922 11.1669 17.2433 11.1173 17.1859 11.0784C17.0562 10.99 14.0239 8.88246 15.3939 6.38925C15.4607 6.26781 15.4755 6.12538 15.4349 5.99331C15.3944 5.86124 15.3018 5.75033 15.1776 5.68499C15.0535 5.61965 14.9078 5.60523 14.7728 5.6449C14.6378 5.68458 14.5244 5.77509 14.4576 5.89653C13.0015 8.54723 15.209 11.0041 16.5801 11.9328Z" fill="#BA4350"/>
<path d="M6.57845 6.81489C6.47882 6.91236 6.42285 7.04454 6.42285 7.18235C6.42285 7.32017 6.47882 7.45235 6.57845 7.54981L14.0184 14.8262C14.1186 14.9209 14.2529 14.9733 14.3922 14.9721C14.5316 14.9709 14.6648 14.9163 14.7634 14.8199C14.8619 14.7235 14.9178 14.5932 14.919 14.4569C14.9202 14.3206 14.8667 14.1893 14.7698 14.0913L7.32988 6.81489C7.23023 6.71746 7.09508 6.66272 6.95416 6.66272C6.81325 6.66272 6.6781 6.71746 6.57845 6.81489Z" fill="#BA4350"/>
<path d="M17.5298 3.56857C17.5608 3.66533 17.6189 3.75169 17.6974 3.81787C17.776 3.88406 17.8719 3.92745 17.9743 3.94312C18.0768 3.9588 18.1816 3.94615 18.2771 3.9066C18.3726 3.86705 18.4548 3.80217 18.5146 3.7193L18.6798 3.49009C18.7316 3.41793 18.8006 3.3592 18.8807 3.31899C18.9609 3.27878 19.0499 3.2583 19.1401 3.25932L19.427 3.26244C19.5308 3.26359 19.6327 3.23632 19.7215 3.18373C19.8102 3.13114 19.8821 3.05532 19.929 2.96485C19.9759 2.87437 19.9961 2.77286 19.9871 2.67179C19.9781 2.57071 19.9404 2.47411 19.8782 2.39291L19.706 2.16838C19.6519 2.09779 19.6162 2.01538 19.602 1.92827C19.5877 1.84116 19.5953 1.75197 19.6242 1.66839L19.7156 1.4028C19.7487 1.30667 19.7537 1.20339 19.7299 1.10465C19.7062 1.00591 19.6546 0.915633 19.5811 0.844039C19.5077 0.772444 19.4152 0.722385 19.3141 0.69952C19.2131 0.676656 19.1075 0.681898 19.0093 0.714655L18.7378 0.805091C18.6525 0.833519 18.5614 0.841277 18.4723 0.827697C18.3833 0.814118 18.2989 0.779608 18.2265 0.727129L17.9964 0.559771C17.9132 0.499233 17.8143 0.462688 17.7109 0.454268C17.6075 0.445848 17.5038 0.465891 17.4114 0.512128C17.3191 0.558365 17.2418 0.628952 17.1884 0.715905C17.1349 0.802857 17.1074 0.902704 17.109 1.00415L17.1132 1.28429C17.1146 1.37248 17.0941 1.45968 17.0533 1.53837C17.0126 1.61705 16.9529 1.68487 16.8794 1.73595L16.6455 1.89811C16.5609 1.95693 16.4948 2.03777 16.4547 2.13145C16.4146 2.22514 16.4022 2.32793 16.4188 2.42819C16.4354 2.52844 16.4803 2.62214 16.5486 2.69867C16.6169 2.77521 16.7057 2.83151 16.805 2.8612L17.0792 2.94384C17.1653 2.96969 17.2437 3.01573 17.3075 3.07796C17.3714 3.14019 17.4187 3.21672 17.4453 3.3009L17.5298 3.56857Z" fill="#BA4350"/>
<path d="M31.79 2.36697C31.8705 2.3058 31.9318 2.22372 31.9669 2.13012C32.0019 2.03652 32.0094 1.93517 31.9884 1.83762C31.9674 1.74007 31.9188 1.65026 31.8481 1.57844C31.7774 1.50662 31.6875 1.45568 31.5886 1.43143L31.3165 1.36335C31.2312 1.34193 31.1524 1.30057 31.0869 1.24281C31.0215 1.18506 30.9713 1.11263 30.9408 1.03175L30.8441 0.771876C30.8091 0.678693 30.7482 0.59695 30.6681 0.535901C30.5881 0.474852 30.4922 0.436934 30.3912 0.426441C30.2903 0.415948 30.1884 0.433298 30.097 0.476527C30.0057 0.519757 29.9285 0.587139 29.8742 0.671046L29.7239 0.902852C29.6768 0.975738 29.6123 1.03631 29.5359 1.07932C29.4595 1.12234 29.3735 1.14651 29.2854 1.14973L29.0048 1.16013C28.9023 1.16305 28.8028 1.19427 28.7176 1.25018C28.6325 1.30609 28.5653 1.3844 28.5237 1.47608C28.4821 1.56776 28.4679 1.66907 28.4827 1.76831C28.4975 1.86755 28.5407 1.96068 28.6073 2.03693L28.7864 2.24795C28.843 2.31419 28.8823 2.39291 28.9008 2.4773C28.9193 2.5617 28.9165 2.64924 28.8927 2.73235L28.8167 2.99638C28.7893 3.0918 28.7896 3.19283 28.8178 3.28805C28.8459 3.38328 28.9007 3.46892 28.976 3.53529C29.0513 3.60167 29.144 3.64615 29.2438 3.6637C29.3435 3.68125 29.4463 3.67118 29.5405 3.63463L29.8014 3.53328C29.8834 3.50147 29.972 3.48959 30.0596 3.49864C30.1473 3.50769 30.2314 3.53741 30.3047 3.58525L30.5375 3.73806C30.6218 3.79321 30.7203 3.82419 30.8217 3.8275C30.9231 3.83082 31.0235 3.80634 31.1114 3.75682C31.1993 3.7073 31.2714 3.63472 31.3194 3.54728C31.3673 3.45984 31.3894 3.36102 31.383 3.26197L31.3649 2.98807C31.3593 2.90203 31.3752 2.81597 31.4113 2.73728C31.4473 2.6586 31.5023 2.58966 31.5716 2.53641L31.79 2.36697Z" fill="#BA4350"/>
<path d="M3.39393 29.3916C3.3236 29.33 3.26956 29.2527 3.23643 29.1663C3.2033 29.0798 3.19206 28.9868 3.20368 28.8952L3.24141 28.6036C3.25408 28.4985 3.23668 28.3921 3.19114 28.2961C3.1456 28.2001 3.07371 28.1183 2.98348 28.0599C2.89324 28.0015 2.7882 27.9687 2.68005 27.9653C2.5719 27.9618 2.46489 27.9878 2.37093 28.0402L2.1116 28.1884C2.03007 28.235 1.93815 28.2615 1.84379 28.2656C1.74944 28.2696 1.65549 28.2512 1.57008 28.2118L1.29852 28.0865C1.20023 28.0422 1.09131 28.0255 0.983884 28.0382C0.87646 28.0509 0.77475 28.0926 0.690079 28.1585C0.605407 28.2243 0.541097 28.3119 0.504309 28.4115C0.467522 28.511 0.4597 28.6185 0.481715 28.7221L0.545487 29.0096C0.565268 29.0997 0.562454 29.1932 0.537283 29.2821C0.512113 29.371 0.465335 29.4526 0.400939 29.52L0.194745 29.7341C0.121279 29.8119 0.0713392 29.9081 0.0504916 30.012C0.029644 30.1159 0.038708 30.2234 0.0766731 30.3225C0.114638 30.4217 0.180013 30.5086 0.265511 30.5736C0.351009 30.6385 0.45327 30.679 0.560898 30.6904L0.859559 30.72C0.953451 30.7294 1.04363 30.7609 1.12238 30.8117C1.20114 30.8626 1.26613 30.9314 1.3118 31.0121L1.45635 31.272C1.50933 31.3643 1.58745 31.4403 1.682 31.4917C1.77655 31.5431 1.88383 31.5679 1.99191 31.5632C2.09998 31.5585 2.2046 31.5246 2.29413 31.4652C2.38366 31.4058 2.45458 31.3233 2.49901 31.2268L2.62017 30.9581C2.65847 30.8736 2.71716 30.7994 2.7912 30.7419C2.86525 30.6844 2.95245 30.6453 3.04531 30.6281L3.34079 30.5709C3.44689 30.5501 3.54503 30.501 3.62428 30.429C3.70353 30.3569 3.76077 30.2648 3.78964 30.1628C3.81851 30.0608 3.81786 29.9529 3.78778 29.8513C3.7577 29.7496 3.69936 29.6581 3.61925 29.587L3.39393 29.3916Z" fill="#BA4350"/>
<path d="M0.372876 18.4089C0.436996 18.4699 0.48501 18.5451 0.512783 18.6283C0.540556 18.7114 0.547255 18.7998 0.532303 18.8861L0.484475 19.1605C0.467088 19.2596 0.478414 19.3615 0.517174 19.4547C0.555933 19.5479 0.620578 19.6286 0.703796 19.6877C0.787015 19.7468 0.885485 19.782 0.988069 19.7892C1.09065 19.7964 1.19326 19.7754 1.28427 19.7286L1.53564 19.5991C1.61479 19.5584 1.70288 19.5372 1.79231 19.5372C1.88175 19.5372 1.96983 19.5584 2.04899 19.5991L2.30089 19.7286C2.39191 19.7754 2.49451 19.7964 2.59709 19.7892C2.69968 19.782 2.79815 19.7468 2.88136 19.6877C2.96458 19.6286 3.02923 19.5479 3.06799 19.4547C3.10675 19.3615 3.11807 19.2596 3.10069 19.1605L3.05233 18.8861C3.03737 18.7998 3.04407 18.7114 3.07185 18.6283C3.09962 18.5451 3.14763 18.4699 3.21175 18.4089L3.41529 18.2145C3.48896 18.1443 3.54107 18.0554 3.56572 17.9577C3.59038 17.86 3.58659 17.7576 3.5548 17.6619C3.523 17.5662 3.46446 17.4812 3.38581 17.4164C3.30715 17.3515 3.21151 17.3095 3.10972 17.2951L2.82806 17.2551C2.73962 17.2426 2.65562 17.2092 2.58331 17.1579C2.511 17.1066 2.45256 17.0388 2.41302 16.9604L2.28707 16.7104C2.24143 16.6204 2.17098 16.5446 2.08365 16.4916C1.99633 16.4386 1.89561 16.4105 1.79285 16.4105C1.69008 16.4105 1.58936 16.4386 1.50204 16.4916C1.41472 16.5446 1.34426 16.6204 1.29862 16.7104L1.17267 16.9604C1.13314 17.0388 1.07469 17.1066 1.00238 17.1579C0.93007 17.2092 0.846068 17.2426 0.757628 17.2551L0.475972 17.2951C0.374178 17.3095 0.278542 17.3515 0.199886 17.4164C0.12123 17.4812 0.062693 17.5662 0.0308974 17.6619C-0.000898189 17.7576 -0.0046831 17.86 0.019971 17.9577C0.044625 18.0554 0.096734 18.1443 0.170402 18.2145L0.372876 18.4089Z" fill="#BA4350"/>
<path d="M24.3999 12.0051C24.3153 11.7852 24.1663 11.5945 23.9715 11.457C23.7767 11.3194 23.5447 11.2411 23.3047 11.2317C19.3328 11.2104 7.50855 23.1905 12.158 24.4192L31.1719 31.5709C31.2678 31.6052 31.3717 31.612 31.4715 31.5905C31.5712 31.5689 31.6625 31.52 31.7347 31.4493C31.807 31.3787 31.857 31.2894 31.879 31.1918C31.9011 31.0943 31.8941 30.9926 31.859 30.8988C31.859 30.8988 25.5483 14.7655 24.3999 12.0051ZM14.0701 24.0221C14.0956 24.0107 18.1089 21.3901 19.7978 19.7779C21.5425 18.147 23.0093 16.2537 24.1427 14.1698L24.8336 15.9292C22.6488 19.5448 19.5644 22.5613 15.8673 24.6978L14.0701 24.0221ZM21.7625 26.9171L20.081 26.2856C20.1039 26.2695 24.6901 22.3906 26.4518 20.0518L27.0996 21.6973C25.5563 23.6539 23.7626 25.4087 21.7625 26.9186V26.9171ZM27.3297 29.0085L25.6998 28.3952C25.8454 28.2695 27.8255 26.4161 28.6184 25.5559L29.2396 27.1406C28.637 27.7882 28.0019 28.4155 27.3297 29.0085Z" fill="#BA4350"/>
<path d="M26.4595 20.1015L24.8545 15.9109C21.8655 20.3366 19.8517 22.1785 15.8491 24.6934L20.0843 26.2537C22.7766 24.0203 24.1988 22.6943 26.4595 20.1015Z" fill="#DCA1A7"/>
<path d="M28.644 25.585L27.0836 21.7065C25.4516 23.7955 24.2544 24.9223 21.7784 26.8779L25.657 28.3936C26.8774 27.346 27.5233 26.7235 28.644 25.585Z" fill="#DCA1A7"/>
<path d="M27.3511 28.9732L29.2235 27.1454L30.3826 29.9986L27.3511 28.9732Z" fill="#DCA1A7"/>
</svg>
