<svg width="32" height="32" viewBox="0 0 32 32" fill="none" xmlns="http://www.w3.org/2000/svg">
<path opacity="0.5" fill-rule="evenodd" clip-rule="evenodd" d="M25.2808 22.3304C26.0963 25.9071 24.8312 28.9742 22 31.3334H10C7.16881 28.9742 5.45277 25.9071 6.2682 22.3304H14.4699C14.2422 20.3779 13.7217 18.0665 13.0469 16.6538C6.61593 18.9766 4.37448 12.7673 3.80859 8.54929C10.933 8.09078 15.6022 11.065 13.4287 16.3364C14.1627 17.8132 14.7193 20.2752 14.9543 22.3304H15.4661C15.4366 19.0482 14.8502 9.89105 14.0789 8.23236C7.62433 10.4888 5.447 4.25668 4.92481 0.0329277C12.0535 -0.35183 16.6918 2.67025 14.4641 7.91928C15.2954 9.63662 15.8284 18.8867 15.9476 22.3304H16.2999C16.419 18.8867 16.9518 9.63662 17.7834 7.91928C15.5556 2.67055 20.1938 -0.35183 27.3225 0.0329277C26.8002 4.25653 24.6231 10.4888 18.1686 8.23236C17.397 9.89105 16.8716 19.0481 16.8424 22.3304H17.0468C17.2819 20.2752 17.8385 17.8132 18.5723 16.3364C16.399 11.065 21.0682 8.09078 28.1926 8.54929C27.6266 12.7673 25.3853 18.9766 18.9541 16.6538C18.2795 18.0665 17.759 20.3779 17.5313 22.3304H25.2808Z" fill="#BA4350"/>
<path opacity="0.5" fill-rule="evenodd" clip-rule="evenodd" d="M6.2682 22.3304C5.45277 25.9071 7.16882 28.9742 10 31.3334H22C24.8312 28.9742 26.0963 25.9071 25.2808 22.3304H17.5313C17.5693 22.0051 17.6153 21.6698 17.6689 21.3304C17.7367 20.9005 17.8165 20.464 17.907 20.0326C18.1741 18.7603 18.5343 17.533 18.9541 16.6538C19.1221 16.7145 19.2872 16.7693 19.4496 16.8185C25.0287 18.5103 27.2833 13.5457 28.0333 9.54131C28.0968 9.20221 28.1496 8.86999 28.1926 8.54929C27.8523 8.52739 27.5177 8.51332 27.1891 8.50696C26.1052 8.48597 25.0874 8.54885 24.1529 8.69115C22.8743 8.88584 21.7517 9.22921 20.8289 9.70989C19.7572 10.2682 18.9551 11.0117 18.4916 11.9226C18.0246 12.8403 17.9011 13.9278 18.1916 15.1671C18.2289 15.3263 18.2731 15.488 18.3242 15.6522C18.3938 15.8757 18.4764 16.1038 18.5723 16.3364C18.5544 16.3724 18.5367 16.4089 18.519 16.446C18.3418 16.8184 18.1755 17.2476 18.022 17.7133C17.7789 18.4508 17.5681 19.2798 17.3981 20.1197C17.2508 20.8474 17.134 21.5832 17.0532 22.2746C17.051 22.2932 17.0489 22.3118 17.0468 22.3304H16.8424C16.8425 22.3226 16.8425 22.3148 16.8426 22.307C16.8426 22.3045 16.8426 22.3019 16.8427 22.2994C16.8428 22.2831 16.843 22.2667 16.8432 22.2502C16.8462 21.9786 16.8524 21.6697 16.8616 21.3304C16.867 21.133 16.8734 20.9255 16.8808 20.709C16.8896 20.454 16.8998 20.1866 16.9113 19.9092C16.9419 19.1725 16.9821 18.3645 17.0311 17.5272C17.075 16.7781 17.1259 16.0055 17.1833 15.2394C17.2779 13.9769 17.3902 12.7321 17.5176 11.6391C17.63 10.6751 17.7541 9.8292 17.8883 9.1936C17.9286 9.00304 17.9697 8.83137 18.0117 8.68109C18.0628 8.49844 18.1151 8.34737 18.1686 8.23236C18.3375 8.29141 18.5035 8.34465 18.6666 8.39227C19.3598 8.59461 20.0009 8.69534 20.5936 8.70891C21.8618 8.73794 22.9081 8.36785 23.7679 7.74014C25.7498 6.29329 26.7406 3.47778 27.1735 1.02654C27.2335 0.686802 27.2828 0.35406 27.3225 0.0329277C26.982 0.0145514 26.6473 0.00394702 26.3186 0.000986031C20.0699 -0.0553147 16.0474 2.65176 17.5283 7.23787C17.6002 7.46061 17.6851 7.68778 17.7834 7.91928C17.7669 7.95336 17.7505 7.9904 17.7342 8.03031C17.2529 9.21124 16.8754 12.8984 16.6249 16.3907C16.5338 17.6612 16.4595 18.9059 16.4032 19.9947C16.4019 20.0196 16.4006 20.0445 16.3994 20.0692C16.3561 20.9112 16.3238 21.657 16.3029 22.2453C16.302 22.2698 16.3012 22.2941 16.3003 22.3182C16.3003 22.3197 16.3002 22.3213 16.3002 22.3229C16.3001 22.3238 16.3001 22.3247 16.3001 22.3256C16.3 22.3272 16.3 22.3288 16.2999 22.3304H15.9476C15.9476 22.3289 15.9475 22.3275 15.9474 22.3261C15.9474 22.3248 15.9473 22.3236 15.9473 22.3224C15.9472 22.321 15.9472 22.3196 15.9472 22.3182C15.946 22.2851 15.9448 22.2514 15.9436 22.2172C15.9429 22.1994 15.9423 22.1814 15.9416 22.1633C15.9265 21.7476 15.9059 21.2584 15.88 20.7157C15.8209 19.4737 15.7343 17.9517 15.6224 16.3908C15.3719 12.8985 14.9944 9.21139 14.5132 8.03038C14.497 7.99045 14.4806 7.95338 14.4641 7.91928C14.5624 7.68772 14.6473 7.4605 14.7192 7.23771C16.1998 2.65145 12.1773 -0.0553411 5.9287 0.000984137C5.60007 0.00394643 5.26528 0.0145514 4.92481 0.0329277C4.96451 0.354062 5.01378 0.686806 5.07377 1.02655C5.51256 3.51153 6.52489 6.37082 8.56172 7.79906C9.34902 8.35112 10.2894 8.68937 11.4089 8.70955C12.0688 8.72145 12.791 8.62281 13.5808 8.39227C13.7439 8.34465 13.9099 8.29142 14.0789 8.23236C14.1335 8.34976 14.1871 8.50473 14.2397 8.69252C14.281 8.83984 14.3216 9.00735 14.3615 9.19278C14.5585 10.1082 14.7381 11.4602 14.8926 12.9733C14.9165 13.207 14.9397 13.4445 14.9624 13.6849C15.1218 15.3774 15.2501 17.21 15.3375 18.8285C15.3607 19.2581 15.381 19.6726 15.3982 20.0654C15.4182 20.5195 15.434 20.9446 15.4455 21.3304C15.4553 21.6618 15.4619 21.9643 15.4651 22.2312C15.4652 22.2449 15.4654 22.2584 15.4655 22.2719C15.4656 22.2818 15.4657 22.2917 15.4658 22.3015C15.4659 22.3112 15.466 22.3208 15.4661 22.3304H14.9543C14.9522 22.3118 14.95 22.2933 14.9478 22.2747C14.9465 22.2631 14.9451 22.2514 14.9437 22.2398C14.8198 21.1915 14.6136 20.0437 14.3441 18.9782C14.103 18.025 13.8111 17.1375 13.482 16.446C13.4644 16.4089 13.4466 16.3724 13.4287 16.3364C13.5246 16.1039 13.6072 15.8758 13.6768 15.6523C13.8882 14.9738 13.9803 14.3373 13.9637 13.7457C13.9575 13.5268 13.9365 13.314 13.9011 13.1075C13.6492 11.6373 12.6697 10.4852 11.1554 9.70114C10.3157 9.2664 9.31162 8.94482 8.17593 8.74489C7.15334 8.56488 6.02407 8.48349 4.8121 8.50696C4.48352 8.51332 4.14886 8.52739 3.80859 8.54929C3.85162 8.86999 3.90433 9.20221 3.96784 9.54131C4.71773 13.5457 6.97243 18.5102 12.5515 16.8185C12.7138 16.7693 12.8789 16.7145 13.0469 16.6538C13.6092 17.8311 14.0645 19.6326 14.3323 21.3304C14.3839 21.6576 14.4286 21.9809 14.4657 22.2952C14.4671 22.3069 14.4685 22.3186 14.4699 22.3304H6.2682ZM12.5827 15.7573C12.9942 14.6755 13.0448 13.784 12.8721 13.065C12.6906 12.3098 12.2396 11.6471 11.5038 11.0929C10.1575 10.079 7.89659 9.46895 4.97895 9.50439C5.32385 11.2649 5.96248 13.1245 7.00845 14.4287C7.62635 15.1991 8.36225 15.7465 9.24501 15.9991C10.1009 16.244 11.1893 16.2387 12.5827 15.7573ZM7.10992 23.3304C6.80704 25.9808 8.09521 28.3458 10.3686 30.3334H21.6298C23.8131 28.4012 24.8209 26.047 24.4482 23.3304H7.10992ZM13.6242 7.33098C14.0467 6.25364 14.1065 5.36283 13.9412 4.6421C13.7675 3.885 13.3233 3.21769 12.5933 2.65599C11.2575 1.62821 9.00305 0.994827 6.08521 1.00008C6.41189 2.76414 7.03128 4.63022 8.06373 5.94514C8.67364 6.72192 9.40385 7.27691 10.2839 7.53855C11.1373 7.79225 12.2258 7.79815 13.6242 7.33098ZM18.6232 7.33098C20.0216 7.79815 21.1101 7.79224 21.9635 7.53853C22.8435 7.27689 23.5737 6.72189 24.1836 5.94511C25.216 4.63018 25.8354 2.76411 26.1621 1.00009C23.2443 0.994847 20.9898 1.62829 19.6541 2.65609C18.924 3.21781 18.4799 3.88513 18.3062 4.64221C18.1409 5.36292 18.2007 6.2537 18.6232 7.33098ZM19.4183 15.7573C20.8118 16.2387 21.9002 16.244 22.7561 15.9991C23.6389 15.7465 24.3748 15.1991 24.9927 14.4287C26.0386 13.1245 26.6773 11.2649 27.0222 9.50439C24.1046 9.46895 21.8437 10.079 20.4974 11.0929C19.7616 11.6471 19.3105 12.3098 19.1291 13.065C18.9563 13.784 19.0069 14.6755 19.4183 15.7573Z" fill="#BA4350"/>
<path fill-rule="evenodd" clip-rule="evenodd" d="M17.0432 22.6376C17.0426 22.6523 17.042 22.667 17.0414 22.6817L16.2921 22.6516C16.335 21.5846 16.3632 20.5232 16.3908 19.4811C16.4429 17.5195 16.4931 15.6267 16.6365 13.8952C16.8561 11.2437 17.2982 8.88543 18.3452 7.14038L18.9883 7.52625C18.0353 9.11454 17.602 11.3245 17.384 13.9571C17.2422 15.6691 17.1931 17.5238 17.1415 19.4698C17.1233 20.1585 17.1047 20.8586 17.0817 21.568C17.3666 19.4066 17.8307 17.9752 19.0041 15.8206L19.6627 16.1793C18.3617 18.5684 17.9776 19.9931 17.7066 22.704L17.0432 22.6376ZM14.8388 13.9969C14.6574 11.3495 14.2961 9.08317 13.6519 7.47259L14.3483 7.19405C15.0374 8.91679 15.4043 11.2789 15.587 13.9457C15.7702 16.6196 15.77 19.6329 15.7083 22.6742L14.9585 22.6591C14.9585 22.6585 14.9585 22.6579 14.9585 22.6574L14.2919 22.6785C14.2459 21.2263 14.1246 20.1605 13.8379 19.1869C13.5523 18.2165 13.0962 17.3173 12.355 16.2084L12.9785 15.7916C13.7461 16.9399 14.2435 17.9089 14.5574 18.9751C14.7805 19.7327 14.9077 20.5289 14.9794 21.459C15.0168 18.8406 14.9958 16.2883 14.8388 13.9969Z" fill="#C46B75"/>
<path d="M22.0001 31.3333C24.8313 28.9741 26.0964 25.907 25.2809 22.3303H17.5314H17.0469H16.8425H16.3H15.9477H15.4662H14.9544H14.4699H6.2683C5.45287 25.907 7.16891 28.9741 10.0001 31.3333H22.0001Z" fill="#BA4350"/>
</svg>
